<svg xmlns="http://www.w3.org/2000/svg" width="256" height="128" viewBox="0 0 256 128"><rect width="256" height="128" fill="#8fb66f"/><rect y="72" width="256" height="56" fill="#c8a56a"/><g fill="#6f9b57"><rect x="8" y="14" width="5" height="12"/><rect x="31" y="34" width="4" height="9"/><rect x="58" y="12" width="5" height="10"/><rect x="89" y="29" width="4" height="12"/><rect x="119" y="15" width="5" height="9"/><rect x="151" y="37" width="4" height="10"/><rect x="181" y="18" width="5" height="12"/><rect x="220" y="32" width="4" height="10"/><rect x="244" y="12" width="5" height="11"/><rect x="18" y="58" width="4" height="9"/><rect x="75" y="55" width="5" height="11"/><rect x="143" y="57" width="4" height="9"/><rect x="207" y="55" width="5" height="11"/></g><g fill="#ad8a54"><rect x="12" y="82" width="9" height="3"/><rect x="45" y="101" width="7" height="3"/><rect x="83" y="87" width="10" height="3"/><rect x="127" y="109" width="8" height="3"/><rect x="168" y="92" width="9" height="3"/><rect x="218" y="108" width="10" height="3"/></g><g fill="#d7b77d"><rect x="28" y="74" width="6" height="3"/><rect x="67" y="116" width="8" height="3"/><rect x="112" y="78" width="6" height="3"/><rect x="153" y="118" width="8" height="3"/><rect x="198" y="80" width="6" height="3"/><rect x="238" y="96" width="8" height="3"/></g></svg>