<svg xmlns="http://www.w3.org/2000/svg" width="1536" height="544" viewBox="0 0 1536 544"><defs><pattern id="g" width="32" height="32" patternUnits="userSpaceOnUse"><rect width="32" height="32" fill="#79ad58"/><path d="M4 25l4-6m8 9l3-7m8 5l3-6" stroke="#4d8c4a" stroke-width="2"/><path d="M2 5h8M19 4h9" stroke="#91c66b" stroke-width="2"/></pattern><pattern id="p" width="32" height="32" patternUnits="userSpaceOnUse"><rect width="32" height="32" fill="#d8b77b"/><path d="M0 16h32M16 0v32" stroke="#c69d63" stroke-width="2"/></pattern></defs><rect width="1536" height="544" fill="url(#g)"/><path d="M0 420C180 390 300 445 460 420s260-75 430-35 300 5 646-55v214H0z" fill="url(#p)"/><path d="M0 430C190 400 320 458 470 430s270-74 420-38 320 9 646-62" fill="none" stroke="#b48b55" stroke-width="18"/><path d="M0 0h1536v90H0z" fill="#5c944e"/><g fill="#356d43" stroke="#285536" stroke-width="3"> <path d="M40 60l22-45 22 45z"/><path d="M110 75l22-45 22 45z"/><path d="M185 55l22-45 22 45z"/><path d="M1250 55l22-45 22 45z"/><path d="M1330 72l22-45 22 45z"/><path d="M1410 52l22-45 22 45z"/><path d="M1490 70l22-45 22 45z"/></g><g fill="#67a94f" stroke="#3d783f" stroke-width="2"><rect x="300" y="330" width="128" height="80"/><rect x="930" y="280" width="160" height="90"/></g><g fill="#d9e3ef" stroke="#526a7b" stroke-width="5"><rect x="1180" y="115" width="190" height="105"/><path d="M1170 115l105-70 105 70z" fill="#b74d4d"/><rect x="1245" y="160" width="55" height="60" fill="#e9d7a0"/></g><g fill="#6fbe57"><rect x="250" y="350" width="28" height="28"/><rect x="282" y="350" width="28" height="28"/><rect x="314" y="350" width="28" height="28"/><rect x="346" y="350" width="28" height="28"/></g><g fill="#6bb252" stroke="#3e7b3e"><circle cx="520" cy="260" r="28"/><circle cx="565" cy="245" r="30"/><circle cx="610" cy="265" r="27"/><circle cx="760" cy="310" r="32"/><circle cx="810" cy="300" r="29"/></g></svg>